<?xml version="1.0" encoding="UTF-8"?>
<svg version="1.1" xmlns="http://www.w3.org/2000/svg" width="300" height="65">
<path d="M0 0 C3.96 0 7.92 0 12 0 C12.33 1.65 12.66 3.3 13 5 C13.886875 4.5875 14.77375 4.175 15.6875 3.75 C19 3 19 3 21.8125 4.4375 C24.53029173 7.62119889 24.76238818 9.88139516 25 14 C24.34 14 23.68 14 23 14 C21.43693175 16.5399859 20.99796591 17.90439795 21.0625 20.9375 C21 24 21 24 19.5625 26.25 C17.2620131 30.29885694 17.25830912 34.41278635 17 39 C17.62132813 39.27328125 18.24265625 39.5465625 18.8828125 39.828125 C22.07925839 41.59737549 22.82435936 43.60370482 24 47 C23.4375 50.25 23.4375 50.25 22 53 C19.9375 54.1875 19.9375 54.1875 18 55 C17.67 55.99 17.34 56.98 17 58 C12.38 58.33 7.76 58.66 3 59 C4.65 59.33 6.3 59.66 8 60 C8 61.65 8 63.3 8 65 C2.72 65 -2.56 65 -8 65 C-8.33 63.35 -8.66 61.7 -9 60 C-5.7 60 -2.4 60 1 60 C1 59.34 1 58.68 1 58 C0.05125 58.020625 -0.8975 58.04125 -1.875 58.0625 C-5 58 -5 58 -7 57 C-7 56.34 -7 55.68 -7 55 C-7.639375 54.773125 -8.27875 54.54625 -8.9375 54.3125 C-11 53 -11 53 -12 50.875 C-12 46.01333608 -9.3200002 42.13631611 -6.8125 38.078125 C-5.73673543 35.32665023 -6.15859113 33.6686052 -6.8125 30.8125 C-7.00457031 29.93207031 -7.19664062 29.05164063 -7.39453125 28.14453125 C-7.80142742 26.03578028 -7.80142742 26.03578028 -9 25 C-8.938125 23.9275 -8.87625 22.855 -8.8125 21.75 C-8.63500725 17.93993715 -8.63500725 17.93993715 -11.0625 15.4375 C-13 13 -13 13 -13.0625 9.9375 C-11.7267255 6.24447637 -10.40130653 4.93256053 -7 3 C-4.1875 3.25 -4.1875 3.25 -2 4 C-1.34 2.68 -0.68 1.36 0 0 Z M17 5 C17 5.99 17 6.98 17 8 C17.66 7.34 18.32 6.68 19 6 C18.34 5.67 17.68 5.34 17 5 Z M-2 27 C-3.56422584 28.56422584 -3.42160514 30.27926252 -3.6875 32.4375 C-3.79449219 33.24058594 -3.90148438 34.04367188 -4.01171875 34.87109375 C-4.24830296 37.22049957 -4.24830296 37.22049957 -2 39 C-1.03929566 36.11788698 -0.89418117 34.30149956 -0.9375 31.3125 C-0.94652344 30.50425781 -0.95554687 29.69601563 -0.96484375 28.86328125 C-0.97644531 28.24839844 -0.98804688 27.63351563 -1 27 C-1.33 27 -1.66 27 -2 27 Z M1 28 C2 30 2 30 2 30 Z M10 28 C9.67 28.66 9.34 29.32 9 30 C9.66 30 10.32 30 11 30 C10.67 29.34 10.34 28.68 10 28 Z M13 29 C13 31.64 13 34.28 13 37 C13.33 37 13.66 37 14 37 C14 34.36 14 31.72 14 29 C13.67 29 13.34 29 13 29 Z M2 34 C3 38 3 38 3 38 Z M6 34 C5.67 35.32 5.34 36.64 5 38 C5.99 38.495 5.99 38.495 7 39 C7 37.35 7 35.7 7 34 C6.67 34 6.34 34 6 34 Z M5 39 C6 41 6 41 6 41 Z " fill="#000000" transform="translate(13,0)"/>
<path d="M0 0 C1.32 0 2.64 0 4 0 C4.33 1.65 4.66 3.3 5 5 C5.33 4.67 5.66 4.34 6 4 C7.66617115 3.95936168 9.33388095 3.957279 11 4 C13.24948336 8.2177813 12.9777007 10.3559217 12 15 C2.66666667 15 -6.66666667 15 -16 15 C-17.03125 15.020625 -18.0625 15.04125 -19.125 15.0625 C-22 15 -22 15 -23 14 C-23.0979057 12.50261876 -23.12974864 11.00057108 -23.125 9.5 C-23.12757812 8.6853125 -23.13015625 7.870625 -23.1328125 7.03125 C-23 5 -23 5 -22 4 C-17.96839809 3.73706944 -16.44107266 3.70595156 -13 6 C-13 5.34 -13 4.68 -13 4 C-8.66666667 4 -4.33333333 4 0 4 C0 2.68 0 1.36 0 0 Z M-19 7 C-19 8.65 -19 10.3 -19 12 C-18.67 12 -18.34 12 -18 12 C-18 10.35 -18 8.7 -18 7 C-18.33 7 -18.66 7 -19 7 Z M-1 7 C-1 8.65 -1 10.3 -1 12 C-0.67 12 -0.34 12 0 12 C0 10.35 0 8.7 0 7 C-0.33 7 -0.66 7 -1 7 Z M4 8 C4 8.99 4 9.98 4 11 C4.66 10.67 5.32 10.34 6 10 C5.34 9.34 4.68 8.68 4 8 Z " fill="#002C42" transform="translate(78,14)"/>
<path d="M0 0 C1.32 0 2.64 0 4 0 C4 0.99 4 1.98 4 3 C4.97582031 3 5.95164063 3 6.95703125 3 C11.63802083 3 16.31901042 3 21 3 C22.03125 2.979375 23.0625 2.95875 24.125 2.9375 C27 3 27 3 28 4 C28.04063832 5.66617115 28.042721 7.33388095 28 9 C26.35 9 24.7 9 23 9 C25.475 9.495 25.475 9.495 28 10 C27.67 11.32 27.34 12.64 27 14 C18 14 9 14 0 14 C0 11.36 0 8.72 0 6 C-0.99 6.33 -1.98 6.66 -3 7 C-3.33 9.31 -3.66 11.62 -4 14 C-4.99 14 -5.98 14 -7 14 C-7 10.37 -7 6.74 -7 3 C-4.69 3 -2.38 3 0 3 C0 2.01 0 1.02 0 0 Z M4 6 C4 7.65 4 9.3 4 11 C4.33 11 4.66 11 5 11 C5 9.35 5 7.7 5 6 C4.67 6 4.34 6 4 6 Z " fill="#002C42" transform="translate(247,15)"/>
<path d="M0 0 C8.33333333 0 16.66666667 0 25 0 C27.24948336 4.2177813 26.9777007 6.3559217 26 11 C24.906875 10.9175 23.81375 10.835 22.6875 10.75 C21.470625 10.8325 20.25375 10.915 19 11 C17.36323743 12.9600281 17.36323743 12.9600281 16 15 C13.3125 15.25 13.3125 15.25 11 15 C10.67 13.68 10.34 12.36 10 11 C6.7 11 3.4 11 0 11 C0 7.37 0 3.74 0 0 Z M13 3 C13 4.65 13 6.3 13 8 C13.33 8 13.66 8 14 8 C14 6.35 14 4.7 14 3 C13.67 3 13.34 3 13 3 Z M18 4 C18 4.99 18 5.98 18 7 C18.66 6.67 19.32 6.34 20 6 C19.34 5.34 18.68 4.68 18 4 Z " fill="#002C42" transform="translate(170,18)"/>
<path d="M0 0 C0 1.32 0 2.64 0 4 C-1.32 4.33 -2.64 4.66 -4 5 C-2.68 5 -1.36 5 0 5 C0 8.63 0 12.26 0 16 C-5.61 16 -11.22 16 -17 16 C-17 11.05 -17 6.1 -17 1 C-15.68 1 -14.36 1 -13 1 C-12.67 2.32 -12.34 3.64 -12 5 C-10.68 5 -9.36 5 -8 5 C-8 3.68 -8 2.36 -8 1 C-5.23735711 0.40267181 -2.83967231 0 0 0 Z M-9 8 C-9 9.65 -9 11.3 -9 13 C-8.67 13 -8.34 13 -8 13 C-8 11.35 -8 9.7 -8 8 C-8.33 8 -8.66 8 -9 8 Z " fill="#002C42" transform="translate(169,13)"/>
<path d="M0 0 C2.31 0 4.62 0 7 0 C8.9375 2.5 8.9375 2.5 10 5 C10.33 4.67 10.66 4.34 11 4 C14 3.875 14 3.875 17 4 C18 5 18 5 18.0625 7.5625 C18.041875 8.366875 18.02125 9.17125 18 10 C16.35 10 14.7 10 13 10 C14.65 10.33 16.3 10.66 18 11 C17.67 12.32 17.34 13.64 17 15 C14.125 15.125 14.125 15.125 11 15 C10.34 14.34 9.68 13.68 9 13 C8.34 13.66 7.68 14.32 7 15 C4.69 15 2.38 15 0 15 C0 10.05 0 5.1 0 0 Z M4 3 C4 5.97 4 8.94 4 12 C4.33 12 4.66 12 5 12 C5 9.03 5 6.06 5 3 C4.67 3 4.34 3 4 3 Z " fill="#002C42" transform="translate(202,14)"/>
<path d="M0 0 C1.32 0 2.64 0 4 0 C4 4.95 4 9.9 4 15 C-1.94 15 -7.88 15 -14 15 C-14 11.37 -14 7.74 -14 4 C-9.33333333 4 -4.66666667 4 0 4 C0 2.68 0 1.36 0 0 Z M-1 7 C-1 8.65 -1 10.3 -1 12 C-0.67 12 -0.34 12 0 12 C0 10.35 0 8.7 0 7 C-0.33 7 -0.66 7 -1 7 Z " fill="#002C42" transform="translate(119,14)"/>
<path d="M0 0 C0.99 0 1.98 0 3 0 C3 0.99 3 1.98 3 3 C3.66 3 4.32 3 5 3 C5 3.99 5 4.98 5 6 C4.34 6 3.68 6 3 6 C3 7.65 3 9.3 3 11 C3.66 11 4.32 11 5 11 C5 11.99 5 12.98 5 14 C0.05 14 -4.9 14 -10 14 C-10 10.37 -10 6.74 -10 3 C-7.03 3 -4.06 3 -1 3 C-0.67 2.01 -0.34 1.02 0 0 Z " fill="#002C42" transform="translate(286,15)"/>
<path d="M0 0 C4.29 0 8.58 0 13 0 C13 3.63 13 7.26 13 11 C11.02090602 11.02686553 9.04171029 11.04633375 7.0625 11.0625 C5.96035156 11.07410156 4.85820312 11.08570313 3.72265625 11.09765625 C1 11 1 11 0 10 C-0.14257189 6.66381769 -0.04228157 3.34024394 0 0 Z " fill="#002C42" transform="translate(138,18)"/>
<path d="M0 0 C6.15234375 -0.09765625 6.15234375 -0.09765625 8 0 C9 1 9 1 9.1328125 3.90625 C9.13023437 5.0921875 9.12765625 6.278125 9.125 7.5 C9.12757813 8.6859375 9.13015625 9.871875 9.1328125 11.09375 C9 14 9 14 8 15 C5.32941149 15.14115161 2.67567762 15.04247107 0 15 C0 10.05 0 5.1 0 0 Z M4 3 C5 6 5 6 5 6 Z M4 9 C5 12 5 12 5 12 Z " fill="#002C42" transform="translate(128,14)"/>
<path d="M0 0 C6.15234375 -0.09765625 6.15234375 -0.09765625 8 0 C9 1 9 1 9.09765625 4.16015625 C9.08605469 5.44792969 9.07445312 6.73570313 9.0625 8.0625 C9.05347656 9.35285156 9.04445313 10.64320312 9.03515625 11.97265625 C9.02355469 12.97167969 9.01195312 13.97070312 9 15 C6.03 15 3.06 15 0 15 C0 10.05 0 5.1 0 0 Z M4 3 C5 6 5 6 5 6 Z " fill="#002C42" transform="translate(45,14)"/>
<path d="M0 0 C1.4540625 0.0309375 1.4540625 0.0309375 2.9375 0.0625 C3.2675 1.3825 3.5975 2.7025 3.9375 4.0625 C3.2775 4.0625 2.6175 4.0625 1.9375 4.0625 C1.9375 3.4025 1.9375 2.7425 1.9375 2.0625 C0.9475 2.3925 -0.0425 2.7225 -1.0625 3.0625 C-1.0625 4.7125 -1.0625 6.3625 -1.0625 8.0625 C-0.0725 8.3925 0.9175 8.7225 1.9375 9.0625 C1.9375 8.0725 1.9375 7.0825 1.9375 6.0625 C1.2775 5.7325 0.6175 5.4025 -0.0625 5.0625 C0.72125 5.10375 1.505 5.145 2.3125 5.1875 C5.09866119 5.34978734 5.09866119 5.34978734 6.9375 3.0625 C9.5625 2.9375 9.5625 2.9375 11.9375 3.0625 C13.0625 5.375 13.0625 5.375 13.9375 8.0625 C12.9475 9.5475 12.9475 9.5475 11.9375 11.0625 C9.3125 11.25 9.3125 11.25 6.9375 11.0625 C6.6075 10.0725 6.2775 9.0825 5.9375 8.0625 C5.2775 8.0625 4.6175 8.0625 3.9375 8.0625 C3.6075 9.0525 3.2775 10.0425 2.9375 11.0625 C0.93795254 11.10504356 -1.06291636 11.10330783 -3.0625 11.0625 C-4.0625 10.0625 -4.0625 10.0625 -4.1953125 8.03125 C-4.19273438 7.2165625 -4.19015625 6.401875 -4.1875 5.5625 C-4.19007812 4.7478125 -4.19265625 3.933125 -4.1953125 3.09375 C-3.9772303 -0.2416248 -3.415854 0.06971131 0 0 Z M7.9375 5.0625 C7.9375 6.3825 7.9375 7.7025 7.9375 9.0625 C8.9275 9.0625 9.9175 9.0625 10.9375 9.0625 C10.9375 7.7425 10.9375 6.4225 10.9375 5.0625 C9.9475 5.0625 8.9575 5.0625 7.9375 5.0625 Z " fill="#002C42" transform="translate(48.0625,38.9375)"/>
<path d="M0 0 C2.64 0 5.28 0 8 0 C8 3.63 8 7.26 8 11 C6.68 11 5.36 11 4 11 C4 12.32 4 13.64 4 15 C2.68 15 1.36 15 0 15 C0 10.05 0 5.1 0 0 Z M4 3 C4 4.65 4 6.3 4 8 C4.33 8 4.66 8 5 8 C5 6.35 5 4.7 5 3 C4.67 3 4.34 3 4 3 Z " fill="#002C42" transform="translate(221,18)"/>
<path d="M0 0 C0.99 0 1.98 0 3 0 C3 0.66 3 1.32 3 2 C3.66 2 4.32 2 5 2 C5 2.66 5 3.32 5 4 C4.34 4 3.68 4 3 4 C3 5.32 3 6.64 3 8 C3.66 8 4.32 8 5 8 C5 8.66 5 9.32 5 10 C4.195625 9.814375 3.39125 9.62875 2.5625 9.4375 C1.716875 9.293125 0.87125 9.14875 0 9 C-0.33 9.33 -0.66 9.66 -1 10 C-3.33297433 10.04092937 -5.66705225 10.04241723 -8 10 C-8.79953138 6.71303767 -9.09658936 5.28976808 -8 2 C-5.69 2 -3.38 2 -1 2 C-0.67 1.34 -0.34 0.68 0 0 Z M-5 6 C-5.33 6.66 -5.66 7.32 -6 8 C-5.34 8 -4.68 8 -4 8 C-4.33 7.34 -4.66 6.68 -5 6 Z " fill="#002C42" transform="translate(195,40)"/>
<path d="M0 0 C2.31 0 4.62 0 7 0 C8.20272819 2.40545638 8.10071472 3.94996953 8.0625 6.625 C8.05347656 7.44226563 8.04445312 8.25953125 8.03515625 9.1015625 C8.02355469 9.72804688 8.01195312 10.35453125 8 11 C1.84765625 11.09765625 1.84765625 11.09765625 0 11 C-1.89885096 9.10114904 -1.12367506 6.42752097 -1.1328125 3.91015625 C-1 2 -1 2 0 0 Z " fill="#002C42" transform="translate(231,18)"/>
<path d="M0 0 C1.99954746 -0.04254356 4.00041636 -0.04080783 6 0 C7 1 7 1 7.09765625 3.28515625 C7.08605469 4.20167969 7.07445313 5.11820313 7.0625 6.0625 C7.05347656 6.98160156 7.04445313 7.90070312 7.03515625 8.84765625 C7.02355469 9.55792969 7.01195313 10.26820312 7 11 C4.36 11 1.72 11 -1 11 C-2.26264601 6.70700357 -1.62950412 4.12168689 0 0 Z " fill="#002C42" transform="translate(97,18)"/>
<path d="M0 0 C4.29 0 8.58 0 13 0 C14.35439668 2.70879335 14.06501451 5.00933268 14 8 C13.01 8 12.02 8 11 8 C11 6.02 11 4.04 11 2 C10.34 2 9.68 2 9 2 C9 3.98 9 5.96 9 8 C8.01 8 7.02 8 6 8 C5.67 6.02 5.34 4.04 5 2 C4.34 2 3.68 2 3 2 C3 3.98 3 5.96 3 8 C2.01 8 1.02 8 0 8 C0 5.36 0 2.72 0 0 Z " fill="#002C42" transform="translate(78,42)"/>
<path d="M0 0 C1.98 0 3.96 0 6 0 C6.66 1.32 7.32 2.64 8 4 C7.01 4 6.02 4 5 4 C5 3.34 5 2.68 5 2 C4.01 2 3.02 2 2 2 C2 4.31 2 6.62 2 9 C2.99 9 3.98 9 5 9 C5 8.01 5 7.02 5 6 C4.34 5.67 3.68 5.34 3 5 C4.65 5 6.3 5 8 5 C7.125 9.875 7.125 9.875 6 11 C4.00041636 11.04080783 1.99954746 11.04254356 0 11 C-1.49297212 8.01405576 -1.11755228 5.29146376 -1 2 C-0.67 1.34 -0.34 0.68 0 0 Z " fill="#002C42" transform="translate(151,39)"/>
<path d="M0 0 C1.81242052 -0.02687279 3.62495233 -0.04633715 5.4375 -0.0625 C6.44683594 -0.07410156 7.45617187 -0.08570313 8.49609375 -0.09765625 C11 0 11 0 12 1 C12.04092937 3.33297433 12.04241723 5.66705225 12 8 C11.01 8 10.02 8 9 8 C9 6.02 9 4.04 9 2 C8.34 2 7.68 2 7 2 C7 3.98 7 5.96 7 8 C6.34 8 5.68 8 5 8 C5 6.02 5 4.04 5 2 C4.01 2 3.02 2 2 2 C2 3.98 2 5.96 2 8 C1.34 8 0.68 8 0 8 C0 5.36 0 2.72 0 0 Z " fill="#002C42" transform="translate(93,42)"/>
<path d="M0 0 C1.32 0.66 2.64 1.32 4 2 C4 3.65 4 5.3 4 7 C0.37 7 -3.26 7 -7 7 C-7.33 5.35 -7.66 3.7 -8 2 C-5.36 2 -2.72 2 0 2 C0 1.34 0 0.68 0 0 Z " fill="#000000" transform="translate(30,58)"/>
<path d="M0 0 C1.98 0 3.96 0 6 0 C7.35439668 2.70879335 7.06501451 5.00933268 7 8 C4.69 8 2.38 8 0 8 C-0.79953138 4.71303767 -1.09658936 3.28976808 0 0 Z M3 4 C2.34 4.66 1.68 5.32 1 6 C1.99 6 2.98 6 4 6 C3.67 5.34 3.34 4.68 3 4 Z " fill="#002C42" transform="translate(173,42)"/>
<path d="M0 0 C1.99954746 -0.04254356 4.00041636 -0.04080783 6 0 C7 1 7 1 7.125 4 C7 7 7 7 6 8 C4.00041636 8.04080783 1.99954746 8.04254356 0 8 C-1.125 2.25 -1.125 2.25 0 0 Z M2 2 C2 3.32 2 4.64 2 6 C2.99 5.67 3.98 5.34 5 5 C4.67 4.01 4.34 3.02 4 2 C3.34 2 2.68 2 2 2 Z " fill="#002C42" transform="translate(133,42)"/>
<path d="M0 0 C1.99954746 -0.04254356 4.00041636 -0.04080783 6 0 C7 1 7 1 7.0625 4.5625 C7.041875 5.696875 7.02125 6.83125 7 8 C6.01 8 5.02 8 4 8 C4 6.02 4 4.04 4 2 C3.34 2 2.68 2 2 2 C2 3.98 2 5.96 2 8 C1.34 8 0.68 8 0 8 C0 5.36 0 2.72 0 0 Z " fill="#002C42" transform="translate(115,42)"/>
<path d="M0 0 C1.2065625 0.0309375 1.2065625 0.0309375 2.4375 0.0625 C3.0975 1.3825 3.7575 2.7025 4.4375 4.0625 C2.4575 4.0625 0.4775 4.0625 -1.5625 4.0625 C-1.5625 4.7225 -1.5625 5.3825 -1.5625 6.0625 C-0.2425 5.7325 1.0775 5.4025 2.4375 5.0625 C2.7675 6.0525 3.0975 7.0425 3.4375 8.0625 C1.43795254 8.10504356 -0.56291636 8.10330783 -2.5625 8.0625 C-3.5625 7.0625 -3.5625 7.0625 -3.6875 4.0625 C-3.52180824 0.08589776 -3.52180824 0.08589776 0 0 Z " fill="#002C42" transform="translate(109.5625,41.9375)"/>
<path d="M0 0 C2.625 -0.1875 2.625 -0.1875 5 0 C5.33 1.32 5.66 2.64 6 4 C4.35 4 2.7 4 1 4 C1 4.66 1 5.32 1 6 C2.32 5.67 3.64 5.34 5 5 C5 5.99 5 6.98 5 8 C3.35 8 1.7 8 0 8 C-1.125 5.6875 -1.125 5.6875 -2 3 C-1.34 2.01 -0.68 1.02 0 0 Z " fill="#002C42" transform="translate(71,42)"/>
<path d="M0 0 C0.66 0 1.32 0 2 0 C2 1.98 2 3.96 2 6 C2.99 6 3.98 6 5 6 C5 4.02 5 2.04 5 0 C5.66 0 6.32 0 7 0 C7 2.64 7 5.28 7 8 C5.00045254 8.04254356 2.99958364 8.04080783 1 8 C0 7 0 7 -0.0625 3.4375 C-0.041875 2.303125 -0.02125 1.16875 0 0 Z " fill="#002C42" transform="translate(160,42)"/>
<path d="M0 0 C0.598125 0.185625 1.19625 0.37125 1.8125 0.5625 C4.16408762 1.22093687 4.16408762 1.22093687 7 0 C6.125 5.75 6.125 5.75 5 8 C4.01 8 3.02 8 2 8 C0.74335022 5.09399739 0 3.20395416 0 0 Z " fill="#002C42" transform="translate(62,42)"/>
<path d="M0 0 C1.32 0 2.64 0 4 0 C4 1.65 4 3.3 4 5 C3.34 5 2.68 5 2 5 C2 6.98 2 8.96 2 11 C1.34 11 0.68 11 0 11 C-0.66 8.36 -1.32 5.72 -2 3 C-1.34 3 -0.68 3 0 3 C0 2.01 0 1.02 0 0 Z " fill="#002C42" transform="translate(142,39)"/>
<path d="M0 0 C0.66 0 1.32 0 2 0 C2 0.66 2 1.32 2 2 C2.66 2 3.32 2 4 2 C4 2.66 4 3.32 4 4 C3.34 4 2.68 4 2 4 C2 5.32 2 6.64 2 8 C2.66 8 3.32 8 4 8 C4 8.66 4 9.32 4 10 C2.68 10 1.36 10 0 10 C-0.66 7.36 -1.32 4.72 -2 2 C-1.34 2 -0.68 2 0 2 C0 1.34 0 0.68 0 0 Z " fill="#002C42" transform="translate(124,40)"/>
<path d="M0 0 C0.66 0 1.32 0 2 0 C2 3.63 2 7.26 2 11 C0.68 11 -0.64 11 -2 11 C-2 10.34 -2 9.68 -2 9 C-1.34 9 -0.68 9 0 9 C0 6.03 0 3.06 0 0 Z " fill="#002C42" transform="translate(169,42)"/>
<path d="M0 0 C1.65 0 3.3 0 5 0 C5 0.66 5 1.32 5 2 C4.01 2.495 4.01 2.495 3 3 C2.34444881 5.52733235 2.34444881 5.52733235 2 8 C1.34 8 0.68 8 0 8 C0 5.36 0 2.72 0 0 Z " fill="#002C42" transform="translate(181,42)"/>
<path d="M0 0 C0.99 0.33 1.98 0.66 3 1 C2.67 1.99 2.34 2.98 2 4 C1.01 3.67 0.02 3.34 -1 3 C-0.67 2.01 -0.34 1.02 0 0 Z " fill="#002C42" transform="translate(148,13)"/>
<path d="M0 0 C0.99 0 1.98 0 3 0 C3 0.66 3 1.32 3 2 C2.01 2 1.02 2 0 2 C0 1.34 0 0.68 0 0 Z " fill="#002C42" transform="translate(168,39)"/>
</svg>
