<?xml version="1.0" encoding="UTF-8"?>
<svg version="1.1" xmlns="http://www.w3.org/2000/svg" width="330" height="304">
<path d="M0 0 C7.70903392 6.7857331 14.9534182 13.9458989 19.578125 23.1953125 C19.578125 23.8553125 19.578125 24.5153125 19.578125 25.1953125 C18.95808594 25.07003174 18.33804688 24.94475098 17.69921875 24.81567383 C-11.52018494 18.95424869 -41.1678565 13.263616 -71.046875 12.8828125 C-71.94301514 12.86500732 -72.83915527 12.84720215 -73.76245117 12.82885742 C-74.59107666 12.82990479 -75.41970215 12.83095215 -76.2734375 12.83203125 C-77.00385254 12.82905029 -77.73426758 12.82606934 -78.48681641 12.82299805 C-81.04271438 13.31476494 -81.81192383 14.17064712 -83.421875 16.1953125 C-83.86346824 18.34799095 -83.86346824 18.34799095 -83.78263855 20.77006531 C-83.78676254 21.7081604 -83.79088654 22.64625549 -83.7951355 23.61277771 C-83.78434967 24.63992386 -83.77356384 25.66707001 -83.76245117 26.7253418 C-83.76288925 27.80842621 -83.76332733 28.89151062 -83.76377869 30.00741577 C-83.76168513 33.59496963 -83.73832674 37.18205882 -83.71484375 40.76953125 C-83.70924983 43.25388839 -83.70497877 45.73824884 -83.70198059 48.22261047 C-83.69168827 54.09810045 -83.66803316 59.97341829 -83.63793212 65.84883767 C-83.60111714 73.19412001 -83.58499894 80.5394121 -83.56835938 87.88476562 C-83.53616645 100.98836883 -83.48495024 114.09182412 -83.421875 127.1953125 C-87.711875 127.1953125 -92.001875 127.1953125 -96.421875 127.1953125 C-96.41743378 125.88288071 -96.41299255 124.57044891 -96.40841675 123.21824646 C-96.36785686 110.84415905 -96.33788391 98.47008514 -96.31825066 86.09594631 C-96.30781768 79.73442754 -96.29366719 73.37296247 -96.27099609 67.01147461 C-96.24925063 60.87122635 -96.23730272 54.73102972 -96.23212051 48.59074593 C-96.22842784 46.24921926 -96.221217 43.90769538 -96.21041489 41.56619072 C-96.19587754 38.28421822 -96.19389802 35.00245855 -96.19482422 31.72045898 C-96.18403839 30.27144196 -96.18403839 30.27144196 -96.17303467 28.79315186 C-96.18901801 23.55211003 -96.54049477 19.11497269 -98.421875 14.1953125 C-122.29635098 2.25807451 -174.58833139 20.30765111 -200.421875 25.1953125 C-192.91407026 5.64522568 -174.03952149 -6.75621557 -155.75097656 -15.10864258 C-108.47925798 -35.92510444 -40.99112027 -34.5578581 0 0 Z " fill="#4769AE" transform="translate(255.421875,43.8046875)"/>
<path d="M0 0 C1.09634766 -0.020625 2.19269531 -0.04125 3.32226562 -0.0625 C4.37994141 -0.06765625 5.43761719 -0.0728125 6.52734375 -0.078125 C7.472146 -0.0874707 8.41694824 -0.09681641 9.39038086 -0.10644531 C12.64174931 0.32726852 14.4566415 1.27250652 17.0625 3.25 C22.47968709 11.45708446 17.78671359 24.77874836 16.125 33.8125 C15.97376678 34.6489505 15.82253357 35.485401 15.66671753 36.34719849 C12.08360238 56.1171012 7.6437128 75.69108364 3.0625 95.25 C-1.6270605 96.36637063 -5.01537556 95.76458943 -9.5625 94.375 C-10.29960205 94.15158936 -11.0367041 93.92817871 -11.79614258 93.69799805 C-34.49682691 86.46324251 -57.04175193 73.08863978 -69.47265625 52.1171875 C-74.39864461 42.47538628 -77.06995889 33.58209119 -77.125 22.75 C-77.13917969 21.4815625 -77.15335938 20.213125 -77.16796875 18.90625 C-76.94247105 15.32886272 -76.23516722 12.5736694 -74.9375 9.25 C-50.18006824 4.1725569 -25.33064193 0.12214897 0 0 Z " fill="#4869AE" transform="translate(125.9375,70.75)"/>
<path d="M0 0 C4.1689543 12.09465531 0.60821426 26.62337396 -4.21484375 37.8203125 C-8.11995576 45.7663665 -13.80731819 51.79838214 -20 58 C-20.63550781 58.64710938 -21.27101563 59.29421875 -21.92578125 59.9609375 C-35.20241171 72.50161284 -59.34998352 86 -78 86 C-81.61015456 74.36044854 -84.1020764 62.56404489 -86.5 50.625 C-86.69632019 49.65355042 -86.89264038 48.68210083 -87.09490967 47.68121338 C-91.63832479 25.17561038 -91.63832479 25.17561038 -93.625 13.875 C-93.78935547 12.98506348 -93.95371094 12.09512695 -94.12304688 11.17822266 C-95.07370952 5.46866777 -95.48534956 -0.34220381 -94 -6 C-82.22001622 -20.91624067 -15.2533536 -7.2401898 0 0 Z " fill="#4769AE" transform="translate(280,81)"/>
<path d="M0 0 C1.39120471 0.00015906 2.78241534 0.00585033 4.17358398 0.01586914 C4.90463852 0.01728409 5.63569305 0.01869904 6.38890076 0.02015686 C8.73253406 0.02577131 11.07607313 0.03832617 13.41967773 0.05102539 C15.00496282 0.05603853 16.59024939 0.06060176 18.17553711 0.06469727 C22.06945383 0.07574542 25.96329979 0.09301967 29.85717773 0.11352539 C33.19246664 7.26200897 36.24694369 14.45880329 39.03686523 21.83618164 C39.41271759 22.8211412 39.78856995 23.80610077 40.17581177 24.82090759 C41.36455659 27.93803911 42.54855228 31.05694685 43.73217773 34.17602539 C44.90589723 37.25976837 46.08061725 40.3431283 47.25567627 43.42636108 C48.02160461 45.43680673 48.78671141 47.44756556 49.55096436 49.45864868 C51.34129534 54.16468523 53.14495072 58.86450021 54.98706055 63.55053711 C55.31570099 64.38733505 55.64434143 65.224133 55.98294067 66.08628845 C56.59646778 67.64411129 57.21290162 69.20079361 57.83273315 70.75611877 C59.85717773 75.89472274 59.85717773 75.89472274 59.85717773 78.11352539 C49.62717773 78.11352539 39.39717773 78.11352539 28.85717773 78.11352539 C26.46316603 72.12849614 24.12610679 66.22589243 22.06030273 60.13696289 C21.70255768 59.09277695 21.70255768 59.09277695 21.33758545 58.02749634 C20.59170549 55.84865455 19.8493704 53.66862558 19.10717773 51.48852539 C18.59569553 49.99235075 18.0839785 48.49625637 17.57202148 47.00024414 C16.3310339 43.37225649 15.09321909 39.74320103 13.85717773 36.11352539 C10.19170247 44.8462941 7.15749983 53.77857733 4.10717773 62.73852539 C3.59569553 64.23470003 3.0839785 65.73079441 2.57202148 67.22680664 C1.33059858 70.85465415 0.09399933 74.48409374 -1.14282227 78.11352539 C-11.37282227 78.11352539 -21.60282227 78.11352539 -32.14282227 78.11352539 C-31.47765278 74.78767797 -30.89060982 72.14828345 -29.73510742 69.05883789 C-29.44998795 68.29096954 -29.16486847 67.5231012 -28.87110901 66.73196411 C-28.40619301 65.49771194 -28.40619301 65.49771194 -27.93188477 64.23852539 C-27.60755966 63.36855927 -27.28323456 62.49859314 -26.94908142 61.6022644 C-25.89247682 58.77124182 -24.83034573 55.9423313 -23.76782227 53.11352539 C-23.04095419 51.1710637 -22.31431137 49.2285177 -21.58789062 47.28588867 C-19.78121906 42.458182 -17.96937022 37.63243891 -16.15533447 32.80749512 C-15.21103946 30.29502944 -14.26817831 27.78203181 -13.32592773 25.26879883 C-12.02388481 21.79684101 -10.71870187 18.3260866 -9.40985107 14.85668945 C-8.71556895 13.01569602 -8.02317548 11.1739907 -7.33081055 9.33227539 C-6.91943848 8.24688477 -6.50806641 7.16149414 -6.08422852 6.04321289 C-5.73046143 5.10719238 -5.37669434 4.17117187 -5.01220703 3.20678711 C-3.66917684 -0.02689469 -3.71857385 0.13432276 0 0 Z " fill="#4769AE" transform="translate(109.142822265625,208.886474609375)"/>
<path d="M0 0 C1.39120471 0.00015906 2.78241534 0.00585033 4.17358398 0.01586914 C4.90463852 0.01728409 5.63569305 0.01869904 6.38890076 0.02015686 C8.73253406 0.02577131 11.07607313 0.03832617 13.41967773 0.05102539 C15.00496282 0.05603853 16.59024939 0.06060176 18.17553711 0.06469727 C22.06945383 0.07574542 25.96329979 0.09301967 29.85717773 0.11352539 C36.64315426 16.38145749 43.08372063 32.76694843 49.35717773 49.23852539 C49.70756104 50.15680115 50.05794434 51.0750769 50.41894531 52.0211792 C51.43208767 54.67863 52.44215703 57.33722489 53.45092773 59.99633789 C53.7505542 60.78300842 54.05018066 61.56967896 54.35888672 62.38018799 C56.32925053 67.59312888 58.09182477 72.81746649 59.85717773 78.11352539 C49.62717773 78.11352539 39.39717773 78.11352539 28.85717773 78.11352539 C23.23886445 64.6295735 23.23886445 64.6295735 21.21655273 58.63305664 C21.0040387 58.00872238 20.79152466 57.38438812 20.5725708 56.74113464 C19.91355978 54.80405318 19.25982969 52.86525765 18.60717773 50.92602539 C17.93978512 48.947683 17.27116379 46.9697934 16.59893799 44.99308777 C15.99929304 43.22935552 15.40417801 41.46408506 14.80932617 39.69873047 C14.10039305 37.21702419 14.10039305 37.21702419 12.85717773 36.11352539 C12.43831299 37.35030029 12.01944824 38.5870752 11.58789062 39.86132812 C10.03844899 44.4337903 8.48515185 49.00493473 6.93066406 53.57568359 C6.25740377 55.55709465 5.58520076 57.53886527 4.9140625 59.52099609 C3.95124185 62.36398166 2.98467172 65.20566787 2.01733398 68.04711914 C1.71626236 68.93878281 1.41519073 69.83044647 1.10499573 70.74913025 C0.82478073 71.56990555 0.54456573 72.39068085 0.25585938 73.23632812 C0.00937149 73.96246811 -0.23711639 74.68860809 -0.49107361 75.43675232 C-1.14282227 77.11352539 -1.14282227 77.11352539 -2.14282227 78.11352539 C-4.36137491 78.20136081 -6.58270723 78.22047148 -8.80297852 78.21118164 C-9.79967812 78.20905922 -9.79967812 78.20905922 -10.81651306 78.20689392 C-12.94616126 78.20128057 -15.07570566 78.18872593 -17.20532227 78.17602539 C-18.64607596 78.1710121 -20.0868313 78.1664489 -21.52758789 78.16235352 C-25.06603329 78.15130684 -28.60441765 78.13403331 -32.14282227 78.11352539 C-30.8036764 71.32564904 -28.80935138 65.12719019 -26.29125977 58.69165039 C-25.91353424 57.71097595 -25.53580872 56.73030151 -25.14663696 55.71990967 C-23.94299414 52.59877217 -22.73066832 49.48109655 -21.51782227 46.36352539 C-20.7268614 44.31818296 -19.93649223 42.27261162 -19.14672852 40.22680664 C-17.97304727 37.18705055 -16.79844552 34.14767556 -15.62005615 31.10974121 C-13.66337337 26.0641039 -11.72116275 21.01368011 -9.80786133 15.95141602 C-9.43899811 14.97622009 -9.07013489 14.00102417 -8.69009399 12.99627686 C-7.99044994 11.14320224 -7.29306534 9.28927255 -6.59823608 7.43438721 C-6.28891144 6.61532898 -5.97958679 5.79627075 -5.66088867 4.95239258 C-5.39063873 4.23218933 -5.12038879 3.51198608 -4.84194946 2.7699585 C-3.61306675 -0.14161757 -3.42340259 0.12366055 0 0 Z " fill="#4769AE" transform="translate(260.142822265625,208.886474609375)"/>
<path d="M0 0 C24.75 0 49.5 0 75 0 C75 7.92 75 15.84 75 24 C68.07 24 61.14 24 54 24 C54 41.82 54 59.64 54 78 C43.44 78 32.88 78 22 78 C22 60.18 22 42.36 22 24 C14.74 24 7.48 24 0 24 C0 16.08 0 8.16 0 0 Z " fill="#4869AD" transform="translate(161,209)"/>
<path d="M0 0 C24.75 0 49.5 0 75 0 C75 7.92 75 15.84 75 24 C68.07 24 61.14 24 54 24 C54 41.82 54 59.64 54 78 C43.44 78 32.88 78 22 78 C22 60.18 22 42.36 22 24 C14.74 24 7.48 24 0 24 C0 16.08 0 8.16 0 0 Z " fill="#4869AD" transform="translate(10,209)"/>
</svg>
